#!OML:ASF E:\Style4\Style4.ASF
:FULLY-SPECIFIED
:DEGREES
3875
root 1.93626 17.2176 -1.93573 13.0498 -40.6277 -4.1207
lowerback 17.9558 -0.745368 -1.87666
upperback 10.8548 -1.57834 -1.42917
thorax 1.58219 -0.970344 -0.1987
lowerneck 0.570396 10.207 -2.0102
upperneck -11.5187 12.7594 -9.89168
head -3.29695 6.83581 -3.27285
rclavicle -2.3059e-014 -6.91771e-014
rhumerus 54.5212 27.5759 -26.6881
rradius 67.1538
rwrist -89.7813
rhand -18.0394 14.6065
rfingers 7.12502
rthumb 8.23235 -15.2131
lclavicle -2.3059e-014 -6.91771e-014
lhumerus 56.2087 -18.3622 -5.94706
lradius 79.1007
lwrist 83.6073
lhand 10.0789 29.1605
lfingers 7.12502
lthumb 35.2012 55.6694
rfemur -41.9896 13.4939 15.9306
rtibia 36.2677
rfoot -9.6174 6.16712
rtoes -17.5677
lfemur -38.6346 26.2327 -24.922
ltibia 51.5446
lfoot -28.3857 17.4507
ltoes -9.5153
3876
root 1.91754 17.2175 -1.93089 13.0878 -40.9014 -4.23057
lowerback 17.9787 -0.849054 -2.10216
upperback 10.8043 -1.74866 -1.55593
thorax 1.52091 -1.06171 -0.176562
lowerneck 0.442748 10.4327 -2.02726
upperneck -11.3918 13.0935 -9.74119
head -3.22505 6.99113 -3.207
rclavicle 3.97569e-014 3.26007e-014
rhumerus 54.5756 27.4252 -25.8531
rradius 67.2508
rwrist -89.9804
rhand -17.864 14.5141
rfingers 7.12502
rthumb 8.40158 -15.2988
lclavicle 3.97569e-014 3.26007e-014
lhumerus 56.2981 -18.606 -5.45194
lradius 79.1735
lwrist 83.5032
lhand 9.79521 29.1338
lfingers 7.12502
lthumb 34.9321 55.7057
rfemur -41.9082 13.4956 16.1492
rtibia 36.2382
rfoot -9.62877 6.43033
rtoes -17.6095
lfemur -38.5178 26.4826 -24.798
ltibia 51.5728
lfoot -28.3652 17.6548
ltoes -10.0873
3877
root 1.89829 17.218 -1.92666 13.2026 -41.1268 -4.44574
lowerback 17.9802 -0.941887 -2.17413
upperback 10.7708 -1.88247 -1.68524
thorax 1.48354 -1.12779 -0.250004
lowerneck 0.310278 10.6056 -1.93758
upperneck -11.2764 13.3571 -9.61875
head -3.15041 7.1087 -3.16601
rclavicle 5.1684e-014 -5.96354e-014
rhumerus 54.4482 27.2329 -25.1823
rradius 67.3457
rwrist -90.0516
rhand -17.6132 14.3396
rfingers 7.12502
rthumb 8.64364 -15.4635
lclavicle 5.1684e-014 -5.96354e-014
lhumerus 56.5546 -18.7599 -5.08037
lradius 79.3229
lwrist 83.5343
lhand 9.69689 28.9745
lfingers 7.12502
lthumb 34.8388 55.5681
rfemur -41.8013 13.504 16.4417
rtibia 36.1677
rfoot -9.60351 6.74445
rtoes -16.7526
lfemur -38.4354 26.718 -24.5618
ltibia 51.6554
lfoot -28.4783 17.6889
ltoes -10.226
3878
root 1.87665 17.2195 -1.92508 13.3607 -41.3867 -4.68709
lowerback 17.9198 -1.00139 -2.19888
upperback 10.7394 -1.96451 -1.82968
thorax 1.47704 -1.16554 -0.375788
lowerneck 0.267264 10.7771 -1.82989
upperneck -11.1892 13.6141 -9.49107
head -3.10197 7.22495 -3.1347
rclavicle -9.54166e-015 -3.57812e-014
rhumerus 54.2117 27.0439 -24.4995
rradius 67.4714
rwrist -89.9823
rhand -17.5788 14.3686
rfingers 7.12502
rthumb 8.6768 -15.433
lclavicle -9.54166e-015 -3.57812e-014
lhumerus 57.023 -18.8973 -4.65262
lradius 79.328
lwrist 83.5518
lhand 9.73562 28.9769
lfingers 7.12502
lthumb 34.8755 55.5619
rfemur -41.7355 13.6134 16.7241
rtibia 36.0766
rfoot -9.50636 6.99017
rtoes -16.2449
lfemur -38.4444 27.0157 -24.3138
ltibia 51.7723
lfoot -28.5277 17.7421
ltoes -10.0251
3879
root 1.85243 17.217 -1.92618 13.5682 -41.6398 -4.97737
lowerback 17.8717 -1.06844 -2.28923
upperback 10.6687 -2.06493 -1.93046
thorax 1.42558 -1.21574 -0.414515
lowerneck 0.346434 10.9798 -1.79085
upperneck -11.1804 13.8999 -9.35802
head -3.10796 7.36253 -3.10652
rclavicle -7.55382e-014 4.77083e-014
rhumerus 54.24 26.8195 -23.5887
rradius 67.61
rwrist -90.2569
rhand -17.7095 14.3816
rfingers 7.12502
rthumb 8.55066 -15.4253
lclavicle -7.55382e-014 4.77083e-014
lhumerus 57.3319 -19.2145 -4.02012
lradius 79.2999
lwrist 83.4209
lhand 9.64001 28.9389
lfingers 7.12502
lthumb 34.7848 55.545
rfemur -41.695 13.7774 17.0255
rtibia 35.9801
rfoot -9.37013 7.21625
rtoes -15.3596
lfemur -38.4976 27.3373 -24.0283
ltibia 51.915
lfoot -28.5375 17.7677
ltoes -9.60296
3880
root 1.82709 17.2149 -1.92689 13.702 -41.8523 -5.21609
lowerback 17.8886 -1.1575 -2.48846
upperback 10.6047 -2.21162 -2.00066
thorax 1.35437 -1.29495 -0.350884
lowerneck 0.375928 11.197 -1.83572
upperneck -11.1841 14.2042 -9.20846
head -3.11639 7.51122 -3.05785
rclavicle -7.71285e-014 2.54444e-014
rhumerus 54.1671 26.732 -22.9542
rradius 67.8241
rwrist -90.3739
rhand -17.8162 14.1989
rfingers 7.12502
rthumb 8.44772 -15.6122
lclavicle -7.71285e-014 2.54444e-014
lhumerus 57.473 -19.5034 -3.39773
lradius 79.3437
lwrist 83.3818
lhand 9.24246 28.9331
lfingers 7.12502
lthumb 34.4075 55.6255
rfemur -41.5983 13.9113 17.3105
rtibia 35.9013
rfoot -9.29275 7.39484
rtoes -14.8975
lfemur -38.4394 27.6386 -23.7508
ltibia 52.0276
lfoot -28.5868 17.6561
ltoes -9.33216
3881
root 1.80337 17.2176 -1.92503 13.8065 -42.0783 -5.42821
lowerback 17.8882 -1.22426 -2.65311
upperback 10.5697 -2.32458 -2.07981
thorax 1.32194 -1.35632 -0.322742
lowerneck 0.199556 11.3408 -2.01791
upperneck -11.0828 14.4304 -8.91636
head -3.07599 7.61427 -2.91937
rclavicle 5.24792e-014 -5.56597e-014
rhumerus 54.0786 26.55 -22.2065
rradius 68.0458
rwrist -90.4667
rhand -17.7588 14.0845
rfingers 7.12502
rthumb 8.50307 -15.7243
lclavicle 5.24792e-014 -5.56597e-014
lhumerus 57.6831 -19.6132 -2.92026
lradius 79.4439
lwrist 83.5893
lhand 8.73013 28.8778
lfingers 7.12502
lthumb 33.9209 55.6791
rfemur -41.48 13.9967 17.5994
rtibia 35.8245
rfoot -9.30862 7.51853
rtoes -15.1503
lfemur -38.3385 27.9482 -23.5072
ltibia 52.1124
lfoot -28.6237 17.6029
ltoes -9.42668
3882
root 1.77983 17.2199 -1.92544 13.9107 -42.2758 -5.59008
lowerback 17.8703 -1.29457 -2.83187
upperback 10.5083 -2.44312 -2.1763
thorax 1.27028 -1.41944 -0.303792
lowerneck -0.167856 11.4723 -2.22317
upperneck -10.7684 14.6677 -8.52877
head -2.93736 7.71162 -2.71924
rclavicle -5.48646e-014 -9.54166e-015
rhumerus 54.0284 26.3907 -21.2989
rradius 68.2751
rwrist -90.5257
rhand -17.6577 14.0521
rfingers 7.12502
rthumb 8.60071 -15.7527
lclavicle -5.48646e-014 -9.54166e-015
lhumerus 57.8846 -19.664 -2.45266
lradius 79.5522
lwrist 83.7946
lhand 8.50189 28.9669
lfingers 7.12502
lthumb 33.7041 55.8158
rfemur -41.3931 14.055 17.834
rtibia 35.7416
rfoot -9.28271 7.66383
rtoes -14.9504
lfemur -38.2892 28.2198 -23.3265
ltibia 52.1773
lfoot -28.6547 17.5376
ltoes -9.47017
3883
root 1.75497 17.2191 -1.92848 14.0158 -42.4159 -5.7637
lowerback 17.8594 -1.36432 -3.01998
upperback 10.4567 -2.56206 -2.25264
thorax 1.22744 -1.48381 -0.258426
lowerneck -0.330538 11.6099 -2.21126
upperneck -10.6415 14.8815 -8.37212
head -2.86803 7.8065 -2.65276
rclavicle -8.74653e-014 4.13472e-014
rhumerus 53.9 26.1982 -20.424
rradius 68.5636
rwrist -90.5802
rhand -17.6706 14.0441
rfingers 7.12502
rthumb 8.58821 -15.7612
lclavicle -8.74653e-014 4.13472e-014
lhumerus 58.0797 -19.7541 -1.76929
lradius 79.5155
lwrist 83.7611
lhand 8.49866 29.1782
lfingers 7.12502
lthumb 33.701 56.0279
rfemur -41.2839 14.0843 18.0792
rtibia 35.638
rfoot -9.16359 7.89371
rtoes -13.9381
lfemur -38.2373 28.4112 -23.0994
ltibia 52.241
lfoot -28.7213 17.5256
ltoes -9.48943
3884
root 1.72792 17.2187 -1.93065 14.1364 -42.5469 -5.97781
lowerback 17.8254 -1.42193 -3.16195
upperback 10.4301 -2.65751 -2.31612
thorax 1.22187 -1.53567 -0.230773
lowerneck -0.343707 11.7439 -2.1283
upperneck -10.6918 15.0654 -8.34798
head -2.87178 7.89574 -2.6612
rclavicle 9.54166e-015 -4.77083e-015
rhumerus 53.7648 25.9478 -19.4722
rradius 68.8691
rwrist -90.7152
rhand -17.7128 14.1054
rfingers 7.12502
rthumb 8.54755 -15.7016
lclavicle 9.54166e-015 -4.77083e-015
lhumerus 58.278 -19.8527 -0.926173
lradius 79.4374
lwrist 83.6821
lhand 8.3911 29.3233
lfingers 7.12502
lthumb 33.5988 56.1952
rfemur -41.1423 14.1236 18.3628
rtibia 35.5283
rfoot -9.07353 8.08484
rtoes -12.969
lfemur -38.1493 28.5704 -22.8077
ltibia 52.2923
lfoot -28.827 17.4726
ltoes -9.35735
3885
root 1.70013 17.2219 -1.93108 14.2836 -42.7085 -6.24423
lowerback 17.8106 -1.48504 -3.25786
upperback 10.3834 -2.75468 -2.38218
thorax 1.1825 -1.58553 -0.230047
lowerneck -0.423187 11.8899 -2.13754
upperneck -10.6554 15.2773 -8.23244
head -2.8478 7.99574 -2.61712
rclavicle -2.54444e-014 3.18055e-015
rhumerus 53.7477 25.746 -18.5167
rradius 69.0419
rwrist -90.7713
rhand -17.5163 14.0772
rfingers 7.12502
rthumb 8.7371 -15.722
lclavicle -2.54444e-014 3.18055e-015
lhumerus 58.3989 -19.969 -0.135205
lradius 79.3661
lwrist 83.5279
lhand 8.7757 29.3132
lfingers 7.12502
lthumb 33.9642 56.1049
rfemur -40.9906 14.2606 18.6606
rtibia 35.4239
rfoot -9.03908 8.17422
rtoes -12.4278
lfemur -38.0253 28.7573 -22.4752
ltibia 52.3221
lfoot -28.8138 17.5574
ltoes -9.69951
3886
root 1.6721 17.2255 -1.93203 14.3651 -42.879 -6.41317
lowerback 17.8034 -1.54919 -3.47245
upperback 10.3367 -2.87062 -2.44072
thorax 1.14681 -1.6501 -0.15182
lowerneck -0.547723 12.0594 -2.19262
upperneck -10.5586 15.5229 -8.13267
head -2.79682 8.11255 -2.56406
rclavicle 3.65764e-014 -1.27222e-014
rhumerus 53.6412 25.5482 -17.7632
rradius 69.2535
rwrist -90.6174
rhand -17.0342 13.9221
rfingers 7.12502
rthumb 9.20231 -15.8571
lclavicle 3.65764e-014 -1.27222e-014
lhumerus 58.4745 -20.1292 0.686318
lradius 79.3054
lwrist 83.2035
lhand 9.39167 29.2182
lfingers 7.12502
lthumb 34.5491 55.8784
rfemur -40.835 14.2974 18.9362
rtibia 35.3156
rfoot -9.0479 8.28181
rtoes -12.7377
lfemur -37.8886 28.9821 -22.2434
ltibia 52.3169
lfoot -28.7241 17.7315
ltoes -10.507
3887
root 1.64399 17.2292 -1.93502 14.4143 -43.0439 -6.51026
lowerback 17.7758 -1.59004 -3.69173
upperback 10.2848 -2.95674 -2.54297
thorax 1.11378 -1.69839 -0.122349
lowerneck -0.648862 12.2079 -2.18973
upperneck -10.4355 15.7469 -7.97775
head -2.74209 8.21463 -2.50231
rclavicle 2.22639e-014 -4.29375e-014
rhumerus 53.4628 25.3181 -17.0369
rradius 69.4699
rwrist -90.5823
rhand -16.7398 13.7085
rfingers 7.12502
rthumb 9.48638 -16.058
lclavicle 2.22639e-014 -4.29375e-014
lhumerus 58.6637 -20.2988 1.39749
lradius 79.3038
lwrist 83.0606
lhand 9.5318 29.0398
lfingers 7.12502
lthumb 34.6821 55.6695
rfemur -40.7009 14.3134 19.1551
rtibia 35.2043
rfoot -9.0141 8.37451
rtoes -12.9387
lfemur -37.7807 29.2257 -22.0608
ltibia 52.3045
lfoot -28.7539 17.6685
ltoes -10.3997
3888
root 1.61621 17.2347 -1.93602 14.5179 -43.1492 -6.6919
lowerback 17.773 -1.6511 -3.74574
upperback 10.1933 -3.04678 -2.66562
thorax 1.01477 -1.73883 -0.203495
lowerneck -0.669593 12.324 -2.11939
upperneck -10.2567 15.93 -7.79323
head -2.68146 8.29277 -2.44382
rclavicle 3.49861e-014 -2.8625e-014
rhumerus 53.2421 25.1369 -16.2604
rradius 69.7354
rwrist -90.6718
rhand -16.6769 13.5784
rfingers 7.12502
rthumb 9.54707 -16.1853
lclavicle 3.49861e-014 -2.8625e-014
lhumerus 58.8762 -20.4973 2.13653
lradius 79.2289
lwrist 83.1004
lhand 9.65139 29.0678
lfingers 7.12502
lthumb 34.7956 55.6713
rfemur -40.5405 14.2905 19.4463
rtibia 35.091
rfoot -9.01273 8.53477
rtoes -13.1328
lfemur -37.6467 29.3507 -21.7791
ltibia 52.2957
lfoot -28.8718 17.54
ltoes -9.94911
3889
root 1.58958 17.2388 -1.93735 14.7222 -43.1391 -6.93995
lowerback 17.7193 -1.74531 -3.71567
upperback 10.0953 -3.16266 -2.73834
thorax 0.932991 -1.7895 -0.276609
lowerneck -0.575723 12.4062 -2.06942
upperneck -10.2185 16.0537 -7.62271
head -2.69196 8.3476 -2.40537
rclavicle 8.42847e-014 -8.26944e-014
rhumerus 52.9344 24.9424 -15.4852
rradius 70.0564
rwrist -90.7507
rhand -16.5281 13.4134
rfingers 7.12502
rthumb 9.69065 -16.3437
lclavicle 8.42847e-014 -8.26944e-014
lhumerus 59.0679 -20.6758 2.94046
lradius 79.1827
lwrist 83.1335
lhand 9.60613 29.1868
lfingers 7.12502
lthumb 34.7527 55.8003
rfemur -40.4364 14.2043 19.7837
rtibia 34.979
rfoot -9.03059 8.68676
rtoes -13.0477
lfemur -37.6294 29.3597 -21.4767
ltibia 52.31
lfoot -28.8806 17.5674
ltoes -9.79711
